<?xml version="1.0" encoding="UTF-8"?>
<svg width="1200pt" height="1200pt" version="1.1" viewBox="0 0 1200 1200" xmlns="http://www.w3.org/2000/svg">
 <path d="m171.97 278.04c-29.293-29.293-29.293-76.777 0-106.07 29.289-29.293 76.773-29.293 106.07 0l321.96 321.96 321.96-321.96c29.289-29.293 76.781-29.293 106.07 0 29.289 29.289 29.289 76.773 0 106.07l-321.97 321.96 321.97 321.96c29.289 29.289 29.289 76.781 0 106.07-29.289 29.289-76.781 29.289-106.07 0l-321.96-321.97-321.96 321.97c-29.293 29.289-76.777 29.289-106.07 0-29.293-29.289-29.293-76.781 0-106.07l321.96-321.96z" fill="#ba1166"/>
</svg>
