<?xml version="1.0" encoding="UTF-8"?>
<svg width="1200pt" height="1200pt" version="1.1" viewBox="0 0 1200 1200" xmlns="http://www.w3.org/2000/svg">
 <path d="m24 1032v-648c0-38.191 15.172-74.816 42.176-101.82 27.008-27.004 63.633-42.176 101.82-42.176h440.16l-141.6 144h-298.56v648h648v-298.56l144-141.6v440.16c0 38.191-15.172 74.816-42.176 101.82-27.008 27.004-63.633 42.176-101.82 42.176h-648c-38.191 0-74.816-15.172-101.82-42.176-27.004-27.008-42.176-63.633-42.176-101.82zm1044-1008c-28.633 0.023438-56.086 11.422-76.32 31.68l-511.68 520.32c-15.777 16.016-27.684 35.434-34.801 56.762l-51.84 156c-1.1289 3.4688-0.92969 7.2305 0.55469 10.562 1.4805 3.3359 4.1484 6 7.4805 7.4844 3.332 1.4805 7.0977 1.6797 10.566 0.55078l156-51.84c21.137-7.4258 40.301-19.574 56.039-35.52l520.32-511.68c20.227-20.254 31.59-47.707 31.586-76.332s-11.371-56.078-31.605-76.328c-20.23-20.246-47.676-31.637-76.301-31.66z" fill="#ba1166"/>
</svg>
